<?xml version="1.0" encoding="UTF-8"?>
<svg id="Réteg_1" data-name="Réteg 1" xmlns="http://www.w3.org/2000/svg" viewBox="0 0 964.06 924.11">
  <defs>
    <style>
      .cls-1 {
        fill: #0f2335;
      }

      .cls-1, .cls-2, .cls-3 {
        stroke-width: 0px;
      }

      .cls-2 {
        fill: #bc956c;
      }

      .cls-3 {
        fill: #feeecb;
      }
    </style>
  </defs>
  <g>
    <g>
      <path class="cls-2" d="M935.58,430.58c.32,0,.62-.02.92.01-7.43-109.87-53.71-212.09-132.31-290.7C718.15,53.85,603.73,6.45,482.04,6.45S245.94,53.85,159.9,139.9C81.3,218.48,35,320.75,27.56,430.59h1.01c.21,0,.42-.01.62,0,7.45-109.41,53.56-211.27,131.83-289.55C246.78,55.29,360.78,8.06,482.04,8.06s235.26,47.22,321,132.98c78.31,78.29,124.41,180.11,131.84,289.55.23-.02.46-.01.7-.01Z"/>
      <path class="cls-1" d="M934.82,437.05c-1.55,0-3.03-.56-4.21-1.59-1.29-1.13-2.05-2.72-2.17-4.43-3.65-53.77-16.69-105.66-38.77-154.22-22.14-48.7-52.82-92.84-91.19-131.2C713.96,61.07,601.59,14.52,482.04,14.52S250.12,61.07,165.59,145.6c-38.35,38.35-69.02,82.49-91.17,131.21-22.08,48.57-35.13,100.46-38.79,154.22-.24,3.49-3.24,6.12-6.69,6.01h-1.38c-1.79,0-3.49-.74-4.71-2.04-1.22-1.31-1.84-3.06-1.72-4.84,3.76-55.52,17.24-109.12,40.05-159.3,22.88-50.32,54.56-95.92,94.17-135.52C242.61,48.06,358.64,0,482.04,0s239.43,48.06,326.71,135.34c39.61,39.61,71.29,85.2,94.16,135.51,22.81,50.18,36.27,103.78,40.03,159.31.13,1.89-.59,3.75-1.95,5.07-1.32,1.28-3.13,1.93-4.96,1.8h-.45s-.11,0-.11,0h-.2c-.15.01-.3.02-.44.02ZM935.86,437.01s.04,0,.06,0c-.02,0-.04,0-.06,0Z"/>
    </g>
    <g>
      <path class="cls-2" d="M875.1,692.11c-.47,0-1.08.06-1.5,0-19.43,33.27-42.59,62.99-70.56,90.97-85.74,85.74-199.73,132.96-321,132.96s-235.26-47.22-321.02-132.96c-27.7-27.7-51.22-58.07-70.58-90.97-.08,0-.31,0-.4,0h-1.58c19.54,33.38,43.36,64.03,71.43,92.1,86.04,86.06,200.46,133.45,322.15,133.45s236.1-47.38,322.15-133.45c28.27-28.27,51.9-58.43,71.47-92.1-.15,0-.39,0-.55,0Z"/>
      <path class="cls-1" d="M482.04,924.11c-123.42,0-239.45-48.06-326.71-135.33-28.42-28.42-52.8-59.84-72.44-93.4-1.17-2-1.18-4.46-.03-6.47,1.15-2.01,3.29-3.24,5.6-3.24h1.94c2.28,0,4.44,1.21,5.6,3.18,19.07,32.4,42.48,62.58,69.58,89.68,84.54,84.52,196.92,131.07,316.45,131.07s231.92-46.55,316.44-131.07c27.82-27.82,50.57-57.15,69.55-89.66,1.26-2.17,3.67-3.41,6.14-3.17h.19c.26-.02.52-.03.75-.03h.26c2.37-.12,4.59,1.07,5.82,3.09s1.24,4.56.05,6.6c-19.55,33.64-43.27,64.19-72.49,93.41-87.26,87.27-203.28,135.33-326.71,135.33ZM874.52,685.73s0,0,.01,0c0,0,0,0-.01,0ZM874.38,685.71s.09.01.14.02c-.04,0-.09-.01-.14-.02Z"/>
    </g>
  </g>
  <g>
    <g>
      <g>
        <path class="cls-2" d="M173.55,293.83c2.21,12.79,4.45,25.42,6.23,37.66.41,4.1,4.03,8.25,3.91,12.47-1.02,4.75-4.67,6.96-9.23,10.43-3.78,2.47-7.88,5-14.97,8.44-1.58.83-3.41.92-4.97.36-12.95-4.41-27.97-18.57-20.26-31.18,2.12-3.2,4.92-6.1,6.59-9.15,7.03-12.28,16.56-22.68,28.15-31.05,1.74-1.25,4.31-.08,4.56,2.03h0Z"/>
        <path class="cls-2" d="M213.94,181.98c1.61,9.34,3.25,18.57,4.55,27.51.3,2.99,2.94,6.03,2.86,9.11-.75,3.47-3.41,5.08-6.75,7.62-2.76,1.8-5.76,3.65-10.94,6.17-1.15.6-2.49.67-3.63.26-9.46-3.22-20.43-13.56-14.8-22.78,1.55-2.34,3.59-4.45,4.81-6.69,5.14-8.97,12.1-16.57,20.56-22.68,1.27-.91,3.15-.06,3.33,1.48h0Z"/>
      </g>
      <g>
        <path class="cls-2" d="M790.51,293.83c-2.21,12.79-4.45,25.42-6.23,37.66-.41,4.1-4.03,8.25-3.91,12.47,1.02,4.75,4.67,6.96,9.23,10.43,3.78,2.47,7.88,5,14.97,8.44,1.58.83,3.41.92,4.97.36,12.95-4.41,27.97-18.57,20.26-31.18-2.12-3.2-4.92-6.1-6.59-9.15-7.03-12.28-16.56-22.68-28.15-31.05-1.74-1.25-4.31-.08-4.56,2.03h0Z"/>
        <path class="cls-2" d="M750.12,181.98c-1.61,9.34-3.25,18.57-4.55,27.51-.3,2.99-2.94,6.03-2.86,9.11.75,3.47,3.41,5.08,6.75,7.62,2.76,1.8,5.76,3.65,10.94,6.17,1.15.6,2.49.67,3.63.26,9.46-3.22,20.43-13.56,14.8-22.78-1.55-2.34-3.59-4.45-4.81-6.69-5.14-8.97-12.1-16.57-20.56-22.68-1.27-.91-3.15-.06-3.33,1.48h0Z"/>
      </g>
    </g>
    <g>
      <g>
        <path class="cls-3" d="M583.46,430.59c1.76-15.54,2.1-25.65,2.1-25.65,0,0,0-78.7-30.88-105.29,0,0-42.38-13.03-45.41-17.37l-21.8,27.14s-3.3,4.11-5.45,6.79c-2.15-2.68-5.45-6.79-5.45-6.79l-21.8-27.14c-3.03,4.34-45.41,17.37-45.41,17.37-30.88,26.59-30.88,105.29-30.88,105.29,0,0,.34,10.11,2.1,25.65h202.86Z"/>
        <path class="cls-1" d="M372.87,430.59h15.67c-1.17-8.77-2.04-17.03-2.67-24.47-.15-1.27-.09-3.57-.11-4.86.69-27.76,3.04-56.8,14.87-82.17,2.84-5.98,6.48-11.45,10.99-15.91,14.17-5.16,28.55-9.88,41.84-17.11.42-.26.79-.49,1.14-.74,8.93,10.2,18.42,20.84,27.44,30.86-8.46-11.82-17.32-24.14-25.94-35.81l-3.08.65c-.1.02,0-.01-.18.1-.16.09-.24.18-.44.29-6.56,3.4-13.86,5.26-20.89,7.57-7.96,2.46-16.02,4.76-24.05,6.93-6.42,5.16-11.55,11.68-15.42,18.6-14.24,26.5-18.68,56.76-20.64,86.32-.09,1.77-.21,4.19-.13,5.98.33,7.54.85,15.51,1.61,23.76Z"/>
        <path class="cls-1" d="M552.42,303.19c4.52,4.47,8.15,9.94,11,15.92,9.04,18.92,12.12,40.13,13.91,61.02.62,8.64,1.19,17.39.84,26-.61,7.29-1.48,15.57-2.66,24.47h15.75c.82-9.28,1.33-18.32,1.58-26.93-1.76-33.18-8.72-84.67-35.46-107.13l-.74-.62-.73-.2c-7.79-2.11-15.6-4.34-23.32-6.73-7.22-2.43-14.88-4.23-21.51-7.96l-3.11-.63-.37.51c-8.49,11.5-17.22,23.65-25.55,35.29,9.03-10.02,18.53-20.68,27.47-30.88,13.39,7.88,28.41,12.47,42.92,17.87Z"/>
      </g>
      <g>
        <g>
          <path class="cls-2" d="M380.62,430.59c-2.23-43.55.37-99.28,22.61-133.44,0,0-43.72-3.04-78.23-25.32,0,0-6.89,7.9-15.09,21.92-24.63,42.11-31.64,90.52-20.86,136.84h91.58Z"/>
          <path class="cls-1" d="M298.99,430.59c-11.08-45.02-4.34-91.59,19.26-131.95,3.45-5.9,6.66-10.66,9.14-14.1,21.98,12.23,45.7,17.86,60.5,20.36-16.97,36.06-19.03,85.87-17.03,125.68h19.48c-2.23-42.23.07-96.02,21-128.17,1.87-2.87,2.08-6.52.55-9.59-1.52-3.07-4.56-5.1-7.98-5.35-.41-.03-41.76-3.19-73.67-23.79-4.04-2.61-9.38-1.85-12.54,1.77-.31.35-7.59,8.76-16.15,23.4-25.37,43.38-33.17,93.24-22.43,141.72h19.87Z"/>
        </g>
        <g>
          <path class="cls-2" d="M583.44,430.59h91.58c10.78-46.32,3.76-94.73-20.86-136.84-8.2-14.02-15.09-21.92-15.09-21.92-34.51,22.28-78.24,25.32-78.24,25.32,22.24,34.17,24.84,89.89,22.61,133.44Z"/>
          <path class="cls-1" d="M573.72,430.59h19.48c1.99-39.81-.06-89.63-17.03-125.68,14.81-2.51,38.53-8.13,60.5-20.36,2.48,3.44,5.69,8.2,9.14,14.1,23.61,40.36,30.34,86.94,19.26,131.95h19.87c10.73-48.48,2.94-98.34-22.43-141.72-8.56-14.64-15.85-23.05-16.15-23.4-3.16-3.62-8.5-4.38-12.54-1.77-31.91,20.6-73.25,23.76-73.66,23.79-3.42.24-6.46,2.27-7.99,5.34-1.53,3.07-1.32,6.72.55,9.6,20.93,32.15,23.23,85.94,21,128.17Z"/>
        </g>
      </g>
      <g>
        <g>
          <circle class="cls-3" cx="405.51" cy="227.4" r="93.09"/>
          <path class="cls-1" d="M405.51,330.17c-56.67,0-102.77-46.1-102.77-102.77s46.1-102.77,102.77-102.77,102.77,46.1,102.77,102.77-46.1,102.77-102.77,102.77ZM405.51,143.99c-46,0-83.41,37.42-83.41,83.41s37.42,83.41,83.41,83.41,83.41-37.42,83.41-83.41-37.42-83.41-83.41-83.41Z"/>
        </g>
        <g>
          <circle class="cls-3" cx="558.55" cy="227.4" r="93.09"/>
          <path class="cls-1" d="M558.55,330.17c-56.67,0-102.77-46.1-102.77-102.77s46.1-102.77,102.77-102.77,102.77,46.1,102.77,102.77-46.1,102.77-102.77,102.77ZM558.55,143.99c-46,0-83.41,37.42-83.41,83.41s37.42,83.41,83.41,83.41,83.41-37.42,83.41-83.41-37.42-83.41-83.41-83.41Z"/>
        </g>
      </g>
      <g>
        <g>
          <circle class="cls-3" cx="405.51" cy="227.4" r="49.95"/>
          <path class="cls-1" d="M405.51,287.03c-32.88,0-59.63-26.75-59.63-59.63s26.75-59.63,59.63-59.63,59.63,26.75,59.63,59.63-26.75,59.63-59.63,59.63ZM405.51,187.13c-22.21,0-40.27,18.07-40.27,40.27s18.07,40.27,40.27,40.27,40.27-18.07,40.27-40.27-18.07-40.27-40.27-40.27Z"/>
        </g>
        <g>
          <circle class="cls-3" cx="558.55" cy="226.72" r="49.95"/>
          <path class="cls-1" d="M558.55,286.35c-32.88,0-59.63-26.75-59.63-59.63s26.75-59.63,59.63-59.63,59.63,26.75,59.63,59.63-26.75,59.63-59.63,59.63ZM558.55,186.45c-22.21,0-40.27,18.07-40.27,40.27s18.07,40.27,40.27,40.27,40.27-18.07,40.27-40.27-18.07-40.27-40.27-40.27Z"/>
        </g>
      </g>
      <g>
        <path class="cls-2" d="M482.03,221.95l3.87,3.26s18.69,15.74,22.65,52.07c0,0,3.4,15.14-18.12,44.2,0,0-5.47,8.45-8.4,12.97-2.92-4.52-8.4-12.97-8.4-12.97-21.52-29.06-18.12-44.2-18.12-44.2,3.96-36.33,22.65-52.07,22.65-52.07,0,0,1.93-1.63,3.87-3.26Z"/>
        <path class="cls-1" d="M482.03,344.12h0c-3.28,0-6.34-1.66-8.12-4.42l-8.23-12.72c-21.49-29.13-20.53-46.53-19.74-51.13,4.42-39.47,25.12-57.31,26-58.05l3.87-3.26c3.6-3.04,8.87-3.03,12.47,0l3.87,3.26c.88.74,21.58,18.58,26,58.05.79,4.61,1.75,22.01-19.74,51.13l-8.24,12.72c-1.78,2.75-4.84,4.42-8.12,4.42ZM465.01,279.19c-.11,1.72-.2,14.12,16.4,36.52.12.16.24.33.35.5l.27.43.27-.43c.11-.17.23-.34.35-.5,16.59-22.41,16.5-34.81,16.4-36.52-.11-.38-.06-.32-.12-.87-2.65-24.31-12.32-38-16.9-43.26-4.55,5.22-14.24,18.91-16.9,43.26-.06.55,0,.49-.12.87ZM499.11,279.39h0ZM464.95,279.39h0ZM455.51,277.27h.02-.02Z"/>
      </g>
      <g>
        <path class="cls-2" d="M482.03,162.05c-1.63-1.72-3.26-3.45-3.26-3.45-15.89-16.8-138.96-48.14-138.96-48.14-101.27-20.89-29.91,25.43-29.91,25.43,0,0,12.71,9.08,97.18,50.86l72.6,35.42s1.18.57,2.35,1.15c1.18-.57,2.35-1.15,2.35-1.15l72.6-35.42c84.46-41.78,97.18-50.86,97.18-50.86,0,0,71.35-46.32-29.91-25.43,0,0-123.06,31.33-138.96,48.14,0,0-1.63,1.72-3.26,3.45Z"/>
        <path class="cls-1" d="M482.03,234.1l-79.2-38.64c-79.64-39.39-95.99-49.91-98.34-51.53-1.07-.7-7.82-5.18-14.26-10.71-4.99-4.28-18.23-15.64-13.39-27.44,5.02-12.22,22.62-13.52,64.93-4.79l.43.1c.31.08,31.35,8,63.94,17.88,52.17,15.82,69.3,24.79,75.89,29.64,6.59-4.84,23.72-13.81,75.89-29.64,32.58-9.88,63.63-17.81,63.94-17.88l.43-.1c42.31-8.73,59.91-7.43,64.93,4.79,4.84,11.79-8.4,23.16-13.39,27.44-6.44,5.53-13.18,10-14.26,10.71-2.35,1.62-18.69,12.13-98.3,51.51l-79.25,38.67ZM298.7,114.73c3.89,3.9,10.23,9,16.47,13.06l.35.24c.49.33,14.68,9.91,95.84,50.06l70.66,34.48,70.71-34.5c81.12-40.12,95.31-49.7,95.87-50.09l.28-.19c6.24-4.06,12.58-9.16,16.46-13.06-5.93-.1-17.39.74-38.94,5.18-59.11,15.06-125.37,36.12-134.1,45.35l-10.29,10.88-10.29-10.88c-8.73-9.23-74.99-30.29-134.1-45.35-21.55-4.44-33.01-5.29-38.94-5.18Z"/>
      </g>
      <g>
        <circle class="cls-1" cx="410.28" cy="216.43" r="29.06"/>
        <circle class="cls-1" cx="553.78" cy="216.43" r="29.06"/>
      </g>
      <g>
        <circle class="cls-3" cx="550.6" cy="209.59" r="9.56"/>
        <circle class="cls-3" cx="413.46" cy="209.59" r="9.56"/>
      </g>
      <g>
        <path class="cls-1" d="M534.59,348.69c-2.79,8.61-6.83,16.66-12.07,24.04-2.04,2.69-3.35,6.31-6.03,8.59-5.44,4.05-12.48,4.84-19.11,1.96-.67-.31-1.01-1.04-.87-1.73.56-3.49,1.35-5.82,2.17-8.07,1.68-3.97,3.44-7.48,7.44-9.18,1.88-.78,3.87-1.57,5.58-2.65l10.46-6.86c3.59-2.32,7.13-4.8,10.84-7.23.76-.57,1.87.25,1.57,1.13h0Z"/>
        <path class="cls-1" d="M431.04,347.55c6.29,4.22,14.92,9.94,21.3,14.09,3.3,2.15,7.83,2.71,10.05,6.25,2.84,4.17,4.12,8.03,5.16,13.73.11.7-.27,1.37-.88,1.65-3.13,1.44-6.1,1.81-8.76,1.66-3.93-.25-7.4-1.27-10.35-3.62-2.68-2.27-3.99-5.9-6.03-8.59-5.24-7.38-9.27-15.43-12.07-24.04-.3-.9.82-1.7,1.57-1.13h0Z"/>
      </g>
      <g>
        <g>
          <path class="cls-1" d="M513.09,407.06c-1.23,5.41-3.51,10.39-6.83,14.76-1.59,2.1-2.52,5.75-5.76,5.92-4.05.28-7.42-1.22-10.73-4.7-.47-.52-.68-1.18-.62-1.83.16-3.06.44-4.9.75-6.63.55-2.16.78-3.79,2.33-4.88,1.49-.68,3.52-.02,5.05-.49,2.14-.58,4.43-1.14,6.85-1.69,2.46-.54,4.94-1.23,7.62-1.8.78-.18,1.52.56,1.35,1.34h0Z"/>
          <path class="cls-1" d="M551.98,409.24c-2.14,5.12-5.24,9.64-9.26,13.38-1.93,1.79-3.46,5.23-6.69,4.85-4.04-.41-7.1-2.47-9.76-6.47-.38-.59-.46-1.28-.3-1.91.68-2.98,1.27-4.76,1.87-6.4.91-2.03,1.42-3.6,3.13-4.41,1.58-.42,3.47.59,5.06.38,2.21-.2,4.56-.36,7.04-.5,2.51-.11,5.08-.37,7.82-.47.8-.05,1.4.81,1.1,1.55h0Z"/>
        </g>
        <g>
          <path class="cls-1" d="M453.18,405.74c4.91,1.15,9.76,2.26,14.41,3.48,1.53.47,3.56-.19,5.05.49,1.54,1.09,1.78,2.72,2.33,4.88.31,1.73.59,3.57.75,6.63.06.69-.19,1.36-.62,1.83-3.3,3.48-6.68,4.99-10.73,4.7-3.24-.18-4.17-3.82-5.76-5.92-3.32-4.37-5.6-9.36-6.83-14.76-.18-.81.62-1.55,1.41-1.32h0Z"/>
          <path class="cls-1" d="M414.04,407.7c5.03.29,10,.56,14.79.96,1.11.1,2.38-.24,3.52-.44,1.13-.17,2.01.04,2.74.94,2.12,2.89,2.7,5.61,3.82,10.01.15.65.01,1.31-.32,1.83-1.61,2.52-3.33,3.94-4.98,4.93-2.88,1.59-6.27,2.5-8.6-.02-2.65-3.35-5.86-5.85-8.18-9.44-1.51-2.29-2.92-4.57-3.96-7.23-.32-.77.35-1.64,1.17-1.54h0Z"/>
        </g>
      </g>
      <path class="cls-1" d="M334.41,326.3c.86,4.96,1.73,9.87,2.42,14.62.16,1.59,1.56,3.2,1.52,4.84-.4,1.85-1.81,2.7-3.58,4.05-1.47.96-3.06,1.94-5.81,3.28-.61.32-1.32.36-1.93.14-5.03-1.71-10.86-7.21-7.87-12.1.82-1.24,1.91-2.37,2.56-3.55,2.73-4.77,6.43-8.81,10.93-12.05.67-.49,1.67-.03,1.77.79h0Z"/>
      <path class="cls-1" d="M347,364.11c2.48,4.39,4.95,8.71,7.2,12.95.69,1.44,2.55,2.49,3.06,4.05.25,1.87-.8,3.15-2.01,5.02-1.06,1.4-2.23,2.86-4.37,5.04-.47.51-1.13.78-1.77.78-4.8-.07-8.19-1.54-10.72-4.71-2.07-2.51,0-5.66.46-8.25.97-5.41,3.09-10.46,6.23-15.03.47-.68,1.57-.59,1.93.15h0Z"/>
      <path class="cls-1" d="M321.05,391.49c3.07,3.99,6.13,7.92,8.96,11.8.88,1.33,2.88,2.1,3.6,3.57.51,1.82-.34,3.23-1.28,5.25-.85,1.53-1.8,3.14-3.61,5.61-.39.57-1,.93-1.64,1.02-4.76.61-8.33-.36-11.28-3.14-2.4-2.19-.81-5.6-.72-8.23.19-5.49,1.58-10.79,4.04-15.76.37-.74,1.47-.81,1.93-.13h0Z"/>
      <g>
        <path class="cls-1" d="M631.41,325.51c4.5,3.25,8.2,7.29,10.93,12.05,1.31,2.29,4.31,4.56,3.2,7.62-1.32,3.84-4.02,6.36-8.51,8.04-.63.22-1.29.17-1.85-.1-2.73-1.32-4.43-2.36-5.89-3.32-1.77-1.35-3.19-2.2-3.58-4.05-.05-1.64,1.36-3.25,1.52-4.84.3-2.2.68-4.52,1.11-6.97.46-2.47.79-5.03,1.32-7.72.14-.79,1.11-1.18,1.75-.72h0Z"/>
        <path class="cls-1" d="M618.99,363.97c3.14,4.57,5.27,9.62,6.23,15.03.46,2.59,2.52,5.75.46,8.25-2.53,3.17-5.92,4.63-10.72,4.71-.67,0-1.27-.28-1.71-.72-2.13-2.17-3.38-3.71-4.43-5.11-1.21-1.86-2.26-3.15-2.01-5.02.51-1.56,2.37-2.6,3.06-4.05,1.03-1.97,2.16-4.03,3.4-6.19,1.27-2.17,2.44-4.47,3.84-6.83.39-.7,1.44-.74,1.89-.09h0Z"/>
        <path class="cls-1" d="M644.94,391.62c2.46,4.97,3.85,10.27,4.04,15.76.09,2.63,1.68,6.05-.72,8.23-2.96,2.78-6.52,3.75-11.28,3.14-.66-.1-1.22-.45-1.59-.95-1.8-2.45-2.82-4.15-3.66-5.68-.94-2.02-1.79-3.43-1.28-5.25.72-1.47,2.72-2.24,3.6-3.57,1.29-1.8,2.71-3.68,4.24-5.64,1.56-1.97,3.05-4.08,4.77-6.21.49-.63,1.53-.53,1.89.18h0Z"/>
      </g>
    </g>
  </g>
  <g>
    <path class="cls-1" d="M52.26,474.88c18.55,0,33.3,3.75,44.27,11.25,10.97,7.5,16.45,18.67,16.45,33.51,0,10.97-2.7,20.12-8.1,27.46-5.41,7.34-12.74,12.82-22.01,16.45-9.28,3.63-19.88,5.44-31.81,5.44l-5.56-18.87c14.67,0,27.7,2.02,39.07,6.05,11.37,4.03,20.36,9.8,26.97,17.3,6.61,7.5,9.92,16.49,9.92,26.98,0,9.68-1.73,17.86-5.2,24.55-3.47,6.7-8.15,12.1-14.03,16.21-5.89,4.11-12.54,7.1-19.96,8.95-7.42,1.86-15.08,2.78-22.98,2.78H0v-178.06h52.26ZM56.37,547.7c6.93,0,12.05-2.09,15.36-6.29,3.3-4.19,4.96-8.95,4.96-14.27,0-6.13-2.06-10.72-6.17-13.79-4.11-3.06-9.64-4.6-16.57-4.6h-18.87v38.95h21.29ZM57.58,620.28c5.16,0,9.84-.68,14.03-2.06,4.19-1.37,7.5-3.55,9.92-6.53,2.42-2.98,3.63-6.73,3.63-11.25,0-5.16-1.45-9.07-4.35-11.73-2.9-2.66-6.65-4.51-11.25-5.56-4.6-1.05-9.4-1.57-14.39-1.57h-20.08v38.71h22.5Z"/>
    <path class="cls-1" d="M127.98,652.94l80.32-185.07h1.93l80.32,185.07h-40.64l-51.29-130.16,25.4-17.42-61.45,147.57h-34.59ZM182.89,588.59h53.46l12.34,29.52h-76.69l10.89-29.52Z"/>
    <path class="cls-1" d="M451.19,635.04c-2.1,2.26-5.41,4.56-9.92,6.89-4.52,2.34-9.72,4.48-15.6,6.41-5.89,1.93-11.9,3.51-18.02,4.72-6.13,1.21-11.94,1.81-17.42,1.81-14.52,0-27.58-2.14-39.19-6.41-11.61-4.27-21.53-10.24-29.76-17.9-8.23-7.66-14.52-16.73-18.87-27.22-4.35-10.48-6.53-21.93-6.53-34.35,0-16.29,2.46-30.44,7.38-42.46,4.92-12.01,11.61-22.02,20.08-30,8.47-7.98,18.22-13.91,29.27-17.78,11.05-3.87,22.62-5.81,34.72-5.81,11.45,0,21.93,1.25,31.45,3.75,9.51,2.5,17.58,5.61,24.19,9.31l-11.37,32.66c-2.9-1.61-6.77-3.22-11.61-4.84-4.84-1.61-9.76-2.94-14.76-3.99-5-1.05-9.43-1.57-13.31-1.57-9.68,0-18.23,1.21-25.64,3.63-7.42,2.42-13.67,6.05-18.75,10.89s-8.91,10.85-11.49,18.02c-2.58,7.18-3.87,15.53-3.87,25.04,0,8.39,1.45,15.93,4.35,22.62,2.9,6.69,6.97,12.38,12.22,17.05,5.24,4.68,11.45,8.23,18.63,10.65,7.17,2.42,15.12,3.63,23.83,3.63,5,0,9.59-.36,13.79-1.09,4.19-.73,7.74-1.89,10.64-3.51v-21.53h-30.72v-33.87h66.29v75.24Z"/>
    <path class="cls-1" d="M477.8,564.15c0-12.26,2.34-23.87,7.02-34.84,4.68-10.97,11.17-20.68,19.47-29.15,8.31-8.47,17.94-15.12,28.91-19.96,10.97-4.84,22.74-7.26,35.32-7.26s24.11,2.42,35.08,7.26c10.97,4.84,20.68,11.49,29.15,19.96,8.47,8.47,15.08,18.19,19.84,29.15,4.76,10.97,7.14,22.58,7.14,34.84s-2.38,24.35-7.14,35.32c-4.76,10.97-11.37,20.61-19.84,28.91-8.47,8.31-18.19,14.8-29.15,19.47-10.97,4.68-22.66,7.02-35.08,7.02s-24.35-2.34-35.32-7.02c-10.97-4.67-20.61-11.17-28.91-19.47-8.31-8.31-14.8-17.94-19.47-28.91-4.68-10.97-7.02-22.74-7.02-35.32ZM514.09,564.15c0,7.9,1.41,15.28,4.23,22.14,2.82,6.86,6.77,12.91,11.85,18.14,5.08,5.24,10.97,9.31,17.66,12.22,6.69,2.9,13.99,4.35,21.89,4.35s14.64-1.45,21.17-4.35,12.22-6.97,17.06-12.22c4.84-5.24,8.63-11.29,11.37-18.14,2.74-6.85,4.11-14.23,4.11-22.14s-1.41-15.56-4.23-22.5c-2.82-6.93-6.69-13.02-11.61-18.27-4.92-5.24-10.69-9.31-17.3-12.22-6.62-2.9-13.79-4.35-21.53-4.35s-14.92,1.45-21.53,4.35c-6.62,2.9-12.42,6.98-17.42,12.22-5,5.24-8.87,11.33-11.61,18.27-2.74,6.94-4.11,14.44-4.11,22.5Z"/>
    <path class="cls-1" d="M692.38,474.88h35.08v144.19h83.71v33.87h-118.78v-178.06Z"/>
    <path class="cls-1" d="M862.21,597.54l-65.56-122.66h43.3l45.97,92.42-10.4.72,45.24-93.14h43.31l-66.77,122.66v55.4h-35.08v-55.4Z"/>
  </g>
  <g>
    <g>
      <path class="cls-1" d="M392.4,717.01v83.55h-20.17v-83.55h20.17ZM384.88,717.01h16.35c7.08,0,13.03,1.1,17.84,3.28,4.81,2.19,8.45,5.31,10.92,9.37,2.46,4.06,3.7,8.95,3.7,14.68s-1.23,10.4-3.7,14.5c-2.47,4.1-6.11,7.24-10.92,9.43-4.81,2.19-10.76,3.28-17.84,3.28h-16.35v-16.59h16.35c4.06,0,7.24-.92,9.55-2.75,2.31-1.83,3.46-4.45,3.46-7.88s-1.15-6.17-3.46-8c-2.31-1.83-5.49-2.74-9.55-2.74h-16.35v-16.59Z"/>
      <path class="cls-1" d="M466.16,717.01v54.66c0,4.22,1.11,7.64,3.34,10.26,2.23,2.63,5.57,3.94,10.03,3.94s7.92-1.31,10.14-3.94c2.23-2.62,3.34-6.04,3.34-10.26v-54.66h20.17v56.1c0,5.25-.86,9.83-2.57,13.72-1.71,3.9-4.1,7.1-7.16,9.61-3.06,2.5-6.65,4.39-10.74,5.67-4.1,1.27-8.49,1.91-13.19,1.91s-9.07-.64-13.13-1.91c-4.06-1.27-7.62-3.16-10.68-5.67-3.06-2.51-5.45-5.71-7.16-9.61-1.71-3.9-2.57-8.47-2.57-13.72v-56.1h20.17Z"/>
      <path class="cls-1" d="M545.28,750.19h13.49c2.31,0,4.28-.36,5.91-1.07,1.63-.72,2.88-1.73,3.76-3.04.87-1.31,1.31-2.92,1.31-4.84,0-2.86-.95-5.01-2.86-6.45-1.91-1.43-4.62-2.15-8.12-2.15h-8.35v52.28h10.26c2.63,0,4.97-.34,7.04-1.01,2.07-.67,3.72-1.79,4.95-3.34,1.23-1.55,1.85-3.68,1.85-6.39,0-1.75-.36-3.26-1.07-4.54-.72-1.27-1.71-2.31-2.98-3.1-1.27-.8-2.73-1.37-4.36-1.73-1.63-.36-3.44-.54-5.43-.54h-15.4v-10.98h17.66c4.06,0,8,.44,11.82,1.31s7.28,2.29,10.38,4.24c3.1,1.95,5.59,4.42,7.46,7.4,1.87,2.98,2.8,6.58,2.8,10.8,0,5.57-1.33,10.06-4,13.49-2.67,3.42-6.43,5.95-11.28,7.58-4.85,1.63-10.58,2.45-17.19,2.45h-32.7v-83.55h30.67c5.81,0,10.92.77,15.34,2.33s7.92,3.9,10.5,7.04c2.59,3.14,3.88,7.1,3.88,11.88,0,4.38-1.29,8.12-3.88,11.22-2.59,3.1-6.09,5.47-10.5,7.1-4.42,1.63-9.53,2.45-15.34,2.45h-15.64v-8.83Z"/>
    </g>
    <g>
      <path class="cls-2" d="M685.63,744.26c-3.45,8.25-8.44,15.54-14.93,21.58-3.11,2.89-5.59,8.44-10.79,7.82-6.51-.66-11.45-3.98-15.75-10.43-.61-.95-.75-2.06-.49-3.08,1.09-4.81,2.05-7.67,3.02-10.33,1.46-3.27,2.29-5.81,5.04-7.11,2.55-.67,5.6.94,8.16.61,3.56-.33,7.35-.58,11.35-.8,4.05-.18,8.19-.6,12.61-.76,1.29-.08,2.26,1.31,1.77,2.49h0Z"/>
      <path class="cls-2" d="M280.31,741.79c8.11.47,16.13.9,23.85,1.55,1.78.15,3.84-.38,5.68-.71,1.82-.28,3.25.07,4.41,1.52,3.42,4.66,4.35,9.06,6.16,16.15.24,1.05.02,2.11-.52,2.95-2.6,4.06-5.37,6.35-8.03,7.95-4.65,2.57-10.11,4.04-13.87-.03-4.27-5.41-9.45-9.43-13.19-15.23-2.44-3.69-4.7-7.37-6.38-11.67-.52-1.24.56-2.64,1.88-2.49h0Z"/>
    </g>
  </g>
</svg>